<?xml version="1.0" encoding="utf-8"?>
<!-- Generator: Adobe Illustrator 18.1.0, SVG Export Plug-In . SVG Version: 6.00 Build 0)  -->
<svg version="1.0" id="Layer_1" xmlns="http://www.w3.org/2000/svg" xmlns:xlink="http://www.w3.org/1999/xlink" x="0px" y="0px"
	 viewBox="0 0 150 150" enable-background="new 0 0 150 150" xml:space="preserve">
<g>
	<path fill="#AAACAF" d="M112.8,75.1C113,88,100.4,105.7,79.2,115c-4.2,1.9-8.4,3.3-12.5,4.3l-0.3,0.4l-0.2-0.2
		c-5.1,1.2-10.1,1.8-14.7,1.8c-7.3,0-13.9-1.5-18.9-4c-5-2.6-8.5-6-10.5-10.4c-1.2-2.6-1.7-5.3-1.7-8.2
		c-0.3-12.9,12.4-30.5,33.5-39.9c9.5-4.3,19.1-6.3,27.7-6.3c0.3,0,0.5,0,0.8,0c3.4-4,7.1-8.3,11.2-12.7c-3.8-0.8-7.9-1.1-12-1.1
		c-10.7,0-22.2,2.5-33.4,7.5C23.7,57.3,6.9,77.6,6.6,98.6c0,4.7,0.9,9.5,2.9,13.9c3.4,7.6,9.5,13.4,16.9,17.1
		c7.4,3.7,16,5.5,25.1,5.5c10.7,0,22.2-2.4,33.4-7.5c24.6-11.2,41.4-31.5,41.7-52.5c0-4.4-0.9-8.8-2.6-13c-3.6,2.4-7.6,5.1-11.8,8.4
		C112.6,72,112.7,73.5,112.8,75.1z"/>
	<path fill="#AAACAF" d="M144.8,5.5c-43.1,26.8-77.4,78.8-77.4,78.8L56,70L40.2,81.9c12.4,7.9,26.3,26.8,26.3,26.8
		c39.2-52.6,78.8-64.5,78.8-64.5L144.8,5.5z"/>
	<path fill="#00A550" d="M144.8,5.5c-43.1,26.8-77.4,78.8-77.4,78.8L56,70L40.2,81.9c12.4,7.9,26.3,26.8,26.3,26.8
		c39.2-52.6,78.8-64.5,78.8-64.5L144.8,5.5z"/>
</g>
</svg>
